<?xml version="1.0" encoding="UTF-8"?>
<svg width="70px" height="40px" viewBox="0 0 70 40" version="1.1" xmlns="http://www.w3.org/2000/svg" xmlns:xlink="http://www.w3.org/1999/xlink">
    <title>JufDet Logo</title>
    <g id="Mobile" stroke="none" stroke-width="1" fill="none" fill-rule="evenodd">
        <g transform="translate(-16.000000, -2521.000000)" fill="#E1E0D6" fill-rule="nonzero" id="Group-4">
            <g transform="translate(0.000000, 2505.000000)">
                <g id="JufDet-Logo" transform="translate(16.000000, 16.000000)">
                    <path d="M48.8571278,9.97743891 C49.4807749,9.8784878 50.0677951,9.762715 50.658775,9.68058558 C51.5279213,9.56085473 52.3990473,9.45794558 53.2701734,9.35899447 C53.7195953,9.30753989 54.1719869,9.28676016 54.6204189,9.23134753 C54.7193034,9.2053938 54.8028897,9.13941279 54.8510693,9.04927749 C55.1480441,8.47140301 55.6538912,8.22303572 56.6061904,8.3635463 C57.3827938,8.48431284 58.1709577,8.51287708 58.9542712,8.44864425 C60.4579536,8.3101127 61.9566865,8.09340977 63.4504697,7.8648327 C64.7373606,7.66693048 66.0094026,7.39778346 67.2923338,7.18404906 C67.8753581,7.07715109 68.4657989,7.01561686 69.058344,7 C69.4741087,7 69.9106617,7.47892337 69.977976,7.87274879 C70.072018,8.42093794 69.8621558,9.00771803 69.4008549,9.16801882 C68.8267036,9.36592104 68.2129557,9.47080922 67.6190061,9.58658202 C66.8389523,9.73797722 66.052959,9.86166611 65.2699354,9.99525011 C64.1602395,10.1842467 63.0485638,10.3653273 61.9418377,10.5721351 C61.8070615,10.6198415 61.7044778,10.7308975 61.667631,10.8689884 C61.5686394,11.9297443 61.4854865,12.9924792 61.4280713,14.0562037 C61.3765957,15.0130609 61.349868,15.9709077 61.3369991,16.9257859 C61.314231,18.6406086 61.314231,20.3554313 61.2954226,22.0712436 C61.2990086,22.4475221 61.2718607,22.8234653 61.2142495,23.1953282 C61.1429755,23.5980592 60.6202999,23.9869371 60.2134444,23.9988112 C59.6373133,24.02157 59.0710813,23.715811 58.991888,23.2309506 C58.9111914,22.6383761 58.8715005,22.0409414 58.8730981,21.442904 C58.8572594,20.7819106 58.8780477,20.1209172 58.8820073,19.4638818 C58.8869569,18.5119722 58.8820073,17.5600625 58.9008157,16.6081528 C58.9245737,15.6364529 58.9740695,14.6657425 59.0245552,13.6950321 C59.0700914,12.8133777 59.133446,11.9327128 59.1869015,11.0510585 C59.1885929,11.0162745 59.1862678,10.9814115 59.1799721,10.9471598 C58.3751703,10.9105479 57.5871972,10.8689884 56.8041736,10.8482087 C56.6893434,10.8482087 56.5141282,10.8887786 56.4636425,10.9699185 C56.1132122,11.5359189 55.5291618,11.5705518 54.972829,11.638828 C53.8789718,11.772412 52.7781852,11.8545415 51.6853179,12.0009891 C50.7152002,12.124678 49.7658707,12.3225802 48.7997127,12.4660593 C48.5205564,12.5076188 48.5750018,12.7045315 48.5641127,12.8499896 C48.4918488,13.7989308 48.4374035,14.7488614 48.3780085,15.6987921 C48.3833717,15.7466355 48.3926418,15.79396 48.4057261,15.8402922 C49.2313161,15.6562431 50.0559161,15.4979213 50.8646775,15.2831974 C51.6734389,15.0684735 52.4485432,14.8319804 53.2206776,14.5470012 C53.6344625,14.3946165 54.0126105,14.134375 54.3907584,13.9008504 C54.7867248,13.6564412 55.1886307,13.5772803 55.6261736,13.7534133 C56.0490779,13.9524103 56.3217609,14.3747042 56.3290139,14.8418755 C56.3131753,15.4632885 55.8182173,16.1282399 55.2252576,16.3429638 C54.1254609,16.7318417 53.0415028,17.1800902 51.9219078,17.4977233 C50.8607179,17.7945766 49.762901,17.9707096 48.678943,18.1834545 C48.4463127,18.228972 48.3898875,18.3061539 48.4591816,18.5317624 C48.6502354,19.1541649 48.7660556,19.8062527 49.0194741,20.4009489 C49.3590153,21.1925577 50.2291514,21.5418552 51.0755296,21.3340578 C52.2832272,21.0372045 53.3523365,20.4900049 54.2086138,19.5756966 C54.4652536,19.2791302 54.6939077,18.9594765 54.8916559,18.6208184 C55.2403223,18.0767975 55.9565672,17.9051263 56.5141282,18.2319405 C57.0318543,18.5169197 57.2347871,19.2214516 56.9803787,19.7716198 C56.4012778,21.0154352 55.4361097,21.8990687 54.2986962,22.6016215 C53.3582232,23.1955655 52.3067485,23.592148 51.2081784,23.7672656 C50.1191402,23.9495818 49.003061,23.6754185 48.1226102,23.0093001 C47.3220194,22.4406347 46.7409099,21.6145601 46.4763798,20.6691064 C46.2236292,19.7230768 46.0579533,18.7559257 45.9814218,17.7797339 C45.9022285,16.8288138 45.9645932,15.8640405 45.9814218,14.9101517 C45.9873613,14.5410641 46.0388369,14.172966 46.0536857,13.8038783 C46.0508749,13.7226262 46.0073435,13.6482439 45.9378655,13.6059761 C44.9479495,13.3566193 44.7123495,12.0593703 45.3716336,11.3924398 C45.6171327,11.1440725 45.9517243,10.9857507 46.2229613,10.7591527 C46.3131376,10.6582614 46.3692458,10.5315503 46.3833277,10.3969916 C46.5110269,9.69542824 46.5813109,8.98001171 46.7565261,8.29032248 C46.9248118,7.62141297 47.7612908,7.2849792 48.4393833,7.59766471 C48.9986858,7.85394808 49.3303077,8.5238471 48.9917564,9.23530558 C48.8957346,9.44112389 48.9046438,9.70235482 48.8571278,9.97743891 Z" id="Path"></path>
                    <path d="M8.74660916,21.467278 C9.21460078,20.7257269 9.70404202,19.9955552 10.1427842,19.2378835 C10.4745105,18.6567926 10.7733017,18.0584852 11.0378182,17.4456438 C11.3449377,16.7448685 11.4521857,16.0033175 11.4726604,15.236163 C11.5028848,14.0517676 11.5701586,12.8654756 11.6764317,11.6867698 C11.7261558,11.1178048 12.221447,10.7053052 12.7957117,10.6436673 C13.3236334,10.5950233 13.8165936,10.9060222 13.9861654,11.3947011 C14.1099882,11.7740111 14.1158381,12.19789 14.1090132,12.6018551 C14.0934135,13.432544 14.0378395,14.2622846 13.9920153,15.0920252 C13.9461911,15.9217659 13.8204184,16.7799547 13.8603926,17.6182298 C13.9120667,18.7068495 14.0778138,19.7916761 14.230886,20.8736578 C14.2513606,21.0187439 14.4707317,21.146761 14.6150291,21.2633988 C15.0050222,21.5791744 15.0859457,22.1320187 14.9153238,22.5454666 C14.7447018,22.9589145 14.2445358,23.2367591 13.8038437,23.2500349 C12.9000348,23.2775349 12.2867708,22.6137424 12.0352253,21.846588 C11.9591767,21.6152089 11.8938528,21.3800367 11.827554,21.1628817 C11.437561,21.6910709 11.0738925,22.257191 10.6400253,22.7749492 C10.0121365,23.5174485 9.2750497,24.1319307 8.18696917,23.9754653 C7.37968362,23.8597758 6.8668428,23.3353797 6.56362323,22.6241735 C6.00398324,21.3098643 5.9786337,19.9196932 6.00788317,18.5304703 C6.02543286,17.5945229 6.08003188,16.6595238 6.12975599,15.7245247 C6.18338003,14.7165083 6.26040365,13.7094403 6.30915278,12.701424 C6.33450233,12.1827176 6.32377752,11.6583215 6.32572748,11.1424599 C6.32572748,10.5649605 6.81321876,10.0822885 7.47328195,10.0045299 C7.93834862,9.95142654 8.58963697,10.3734089 8.67056052,10.8399602 C8.7240521,11.2219788 8.74102438,11.6079972 8.72125961,11.9930626 C8.70630988,12.7390389 8.67836038,13.4846991 8.63741111,14.2300433 C8.58476206,15.1508183 8.48628882,16.0696968 8.45508938,16.9904718 C8.41999,18.0117639 8.41999,19.0340044 8.44046464,20.0552965 C8.44923948,20.5123651 8.54673774,20.9675371 8.60328672,21.4236573 L8.74660916,21.467278 Z" id="Path"></path>
                    <path d="M17.7197017,14.4274314 C18.5655948,14.1799736 19.4173284,13.9203458 20.2749025,13.6820156 C20.986465,13.4852664 21.7019212,13.2976447 22.4212711,13.139434 C22.9147899,13.0309176 23.5260912,13.4609262 23.6652888,13.9041191 C23.9320031,14.7539946 23.4433514,15.3655398 22.9556731,15.514623 C22.0396944,15.7945342 21.1061944,16.0075102 20.1863222,16.2752514 C19.3511366,16.5186525 18.520818,16.782337 17.7031537,17.0805033 C17.6136,17.1129568 17.5912116,17.4314066 17.5863446,17.6190283 C17.5629827,18.6048027 17.5415677,19.5905771 17.5454614,20.5763515 C17.5454614,21.2649738 17.6009457,21.9525819 17.6106798,22.6412041 C17.6425079,23.1953637 17.3245641,23.7066349 16.8261115,23.9028331 C16.3900239,24.097554 15.9597768,23.9880235 15.6103227,23.6776871 C15.2384801,23.3480815 15.1781287,22.8663501 15.1742351,22.3896897 C15.1654744,21.1726842 15.1742351,19.9627779 15.1742351,18.7498292 C15.1742351,18.4678896 15.2199853,18.1839216 15.1956501,17.9050245 C15.166835,17.7700073 15.0783851,17.657166 14.9571647,17.6007732 C14.3341824,17.3979389 13.9837549,16.8411589 14.0810959,16.1413808 C14.1482611,15.6119834 14.6923972,15.1515497 15.3075922,15.1332946 L15.3075922,12.2936152 C14.3400229,12.2936152 13.7871261,11.552256 14.0772022,10.6050201 C14.2125062,10.1638556 14.5716944,9.96406387 14.953271,9.79368311 C15.0674873,9.72884048 15.1454783,9.61146937 15.1635276,9.47726169 C15.1635276,9.04116806 15.3990927,8.54422416 15.6735943,8.37891426 C16.2829488,8.00975593 16.8806225,8.1659383 17.1784859,8.55538005 C17.5464348,9.03508304 17.8773941,8.59290438 18.1947257,8.50872817 C19.2771574,8.21664686 20.3479082,7.8170634 21.440074,7.55743557 C22.470915,7.3130203 23.5290114,7.19030558 24.5744536,7.01586813 C25.2636277,6.90126679 25.9372273,7.42153662 25.9956319,8.12030059 C26.0540365,8.81906457 25.5196345,9.36874537 24.8197528,9.48638923 C23.4569791,9.7166061 22.0942054,9.96913473 20.7508999,10.3078679 C19.7502346,10.5603966 18.7826652,10.9609942 17.8024415,11.2997274 C17.7625317,11.3139258 17.7051006,11.3646343 17.7051006,11.4011445 C17.7051006,12.0583274 17.7119144,12.7195671 17.7158081,13.3737075 C17.7197017,13.7276533 17.7197017,14.0765282 17.7197017,14.4274314 Z" id="Path"></path>
                    <path d="M1,37.9461137 C1.03911828,36.9021025 1.07241043,35.8887694 1.11569023,34.8783123 C1.16479615,33.7278868 1.22888354,32.5774613 1.27299564,31.4270358 C1.31211392,30.3954875 1.32709539,29.3629806 1.36205215,28.3314324 C1.40949346,26.9202438 1.46775473,25.5090551 1.51686065,24.0969078 C1.5493205,23.1631458 1.56846349,22.228425 1.60009103,21.294663 C1.63171857,20.3609009 1.68997984,19.4443953 1.72077508,18.514468 C1.7482411,17.6852029 1.75739645,16.8549792 1.77071331,16.0218794 C1.79235321,14.6183602 1.81732232,13.2157998 1.82647766,11.8122806 C1.82647766,11.347317 1.78735938,10.883312 2.06035502,10.4825805 C2.48316535,9.86230938 3.36041354,9.8287553 3.78155926,10.447109 C3.99962285,10.7673108 4.04539956,11.1450338 3.95883996,11.5620631 C3.89672905,11.9135037 3.86632708,12.2713988 3.86811885,12.6300414 C3.85147277,13.3653551 3.85979581,14.1025861 3.84897586,14.8350237 C3.83982052,15.4802207 3.82067753,16.1254177 3.80236685,16.7706146 C3.77240391,17.8149454 3.74049894,18.8592761 3.70665192,19.9036068 C3.67585668,20.830658 3.64006761,21.7577093 3.60344625,22.6838018 C3.56682488,23.6098943 3.52021587,24.5359869 3.49108523,25.4639968 C3.46278691,26.3114769 3.45529617,27.1589571 3.42783015,28.0064372 C3.40452564,28.7359987 3.36374276,29.4646016 3.33627673,30.1941631 C3.30631379,30.9965849 3.28717081,31.7999654 3.25304635,32.6023872 C3.21725729,33.4652063 3.16315754,34.3213146 3.13069769,35.1812577 C3.09574094,36.1073502 3.09324402,37.0363188 3.04746732,37.9614527 C3.01667208,38.5462523 3.09574094,39.1578952 2.72037193,39.6765454 C2.40909031,40.1060376 1.67666298,40.1050789 1.34873529,39.689967 C0.929254178,39.1646061 1.01248456,38.5366655 1,37.9461137 Z" id="Path"></path>
                    <path d="M2.72709289,2.65976462 L2.21172732,4.49173063 L2.32360383,4.56913764 C2.75276947,4.27002165 3.20394359,3.99575235 3.60743265,3.66414452 C3.96717157,3.36048113 4.29541957,3.01840852 4.58681063,2.6435187 C4.72803179,2.46290233 4.75921049,2.18289918 4.82340194,1.943033 C4.96302058,1.36751679 5.49643027,0.994186376 6.0604627,1.07722121 C6.58316443,1.14220488 6.98848752,1.66111857 6.99949177,2.2536167 C7.0187492,3.33253669 6.48871131,4.14769945 5.75509484,4.7927579 C5.00516602,5.46337574 4.19961401,6.06332335 3.34791582,6.58554258 C2.55285898,7.06336366 1.65417881,7.19906485 0.819690084,6.60943364 C0.276813901,6.22717678 0.0172970766,5.63850121 0.00170772674,4.9695517 C-0.0286711657,3.59804489 0.346897264,2.25004876 1.07737287,1.1087574 C1.52304487,0.395848353 2.13378057,-0.0666824491 3.01228629,0.00785763891 C3.53957312,0.0527728201 4.28327681,0.676807147 4.49694261,1.18520877 C4.67392758,1.60664696 4.74545519,1.98794818 4.53545747,2.41894279 C4.2337577,3.03628762 3.3690073,3.21881528 2.89949276,2.76488525 C2.84446595,2.72566999 2.78685675,2.69054284 2.72709289,2.65976462 Z" id="Path"></path>
                    <path d="M45.6409494,15.1732109 C45.2741367,13.983726 44.7085621,12.8592324 43.9662778,11.843575 C42.925127,10.4053299 41.6303625,9.25473381 39.9556909,8.54250695 C38.4052592,7.88249036 36.7901406,7.85293738 35.1791291,8.3011576 C33.7200804,8.70504835 32.4017001,9.36703514 31.3749241,10.4811825 C30.9087678,10.9845683 30.8471613,11.9903548 31.3615761,12.4513813 C31.7722864,12.8188234 32.2394695,13.1734592 32.7487504,13.3842704 C33.0403548,13.5054377 33.506511,13.4088979 33.8217313,13.2650734 C34.2121318,13.0832843 34.4335864,12.6787207 34.3679761,12.2671677 C34.3299854,11.9716379 34.1954777,11.6908846 34.0784253,11.3224574 L36.3948318,10.426017 C36.7500963,13.5409012 36.4800542,16.5572756 36.3948318,19.6071433 C36.3044755,19.5825158 36.2490296,19.5716797 36.1976908,19.5529628 C35.5816253,19.3214644 34.9830149,19.4544529 34.6955176,20.0139893 C34.5158318,20.3656698 34.4840018,20.8188155 34.4973498,21.2236914 C34.5219925,21.9359182 34.7376154,22.6254878 35.2818067,23.1318289 C36.1114417,23.9031617 37.1300034,24.1169283 38.268698,23.9435508 C39.4494903,23.7652478 40.5943455,23.4510011 41.6170144,22.8737328 C42.5198954,22.3557518 43.3758149,21.7659009 44.1757401,21.1104049 C44.9017351,20.5168338 45.4431632,19.742769 45.7405467,18.8732442 C46.1707658,17.6310339 46.0157226,16.3957193 45.6409494,15.1732109 Z M43.3769084,17.880264 C43.3070876,18.6190886 42.7474947,19.1244446 42.1950893,19.5913817 C41.2570832,20.389819 40.1487202,20.9821891 38.9473969,21.3271268 C38.9329104,21.3319872 38.9174726,21.3336703 38.9022187,21.3320523 L39.1075739,10.813161 C39.3714554,10.9668365 39.7739515,11.1283928 40.078904,11.3943697 C40.6877821,11.9273084 41.3038477,12.4720684 41.8069679,13.0946512 C42.5257111,13.9812407 43.062715,14.9771761 43.2711505,16.0913236 C43.3888069,16.6805142 43.4243705,17.2820883 43.3769084,17.880264 L43.3769084,17.880264 Z" id="Shape"></path>
                </g>
            </g>
        </g>
    </g>
</svg>