<svg xmlns="http://www.w3.org/2000/svg" viewBox="0 0 702.39 405.23"><defs><style>.cls-1{fill:#222;}</style></defs><title>Asset 1</title><g id="Layer_2" data-name="Layer 2"><g id="Layer_1-2" data-name="Layer 1"><path class="cls-1" d="M488.82,105.3c6.3-1,12.23-2.17,18.2-3,8.78-1.21,17.58-2.25,26.38-3.25,4.54-.52,9.11-.73,13.64-1.29a3.71,3.71,0,0,0,2.33-1.84c3-5.84,8.11-8.35,17.73-6.93a100.73,100.73,0,0,0,23.72.86c15.19-1.4,30.33-3.59,45.42-5.9,13-2,25.85-4.72,38.81-6.88a115.8,115.8,0,0,1,17.84-1.86c4.2,0,8.61,4.84,9.29,8.82.95,5.54-1.17,11.47-5.83,13.09-5.8,2-12,3.06-18,4.23-7.88,1.53-15.82,2.78-23.73,4.13-11.21,1.91-22.44,3.74-33.62,5.83a4.38,4.38,0,0,0-2.77,3c-1,10.72-1.84,21.46-2.42,32.21-.52,9.67-.79,19.35-.92,29-.23,17.33-.23,34.66-.42,52a69.88,69.88,0,0,1-.82,11.36c-.72,4.07-6,8-10.11,8.12-5.82.23-11.54-2.86-12.34-7.76A131.37,131.37,0,0,1,590,221.17c-.16-6.68.05-13.36.09-20,.05-9.62,0-19.24.19-28.86.24-9.82.74-19.63,1.25-29.44.46-8.91,1.1-17.81,1.64-26.72a4.58,4.58,0,0,0-.07-1.05c-8.13-.37-16.09-.79-24-1-1.16,0-2.93.41-3.44,1.23-3.54,5.72-9.44,6.07-15.06,6.76-11.05,1.35-22.17,2.18-33.21,3.66C507.59,127,498,129,488.24,130.45c-2.82.42-2.27,2.41-2.38,3.88-.73,9.59-1.28,19.19-1.88,28.79a8.92,8.92,0,0,0,.28,1.43c8.34-1.86,16.67-3.46,24.84-5.63s16-4.56,23.8-7.44c4.18-1.54,8-4.17,11.82-6.53,4-2.47,8.06-3.27,12.48-1.49a12.37,12.37,0,0,1,7.1,11c-.16,6.28-5.16,13-11.15,15.17-11.11,3.93-22.06,8.46-33.37,11.67-10.72,3-21.81,4.78-32.76,6.93-2.35.46-2.92,1.24-2.22,3.52,1.93,6.29,3.1,12.88,5.66,18.89,3.43,8,12.22,11.53,20.77,9.43,12.2-3,23-8.53,31.65-17.77a64.28,64.28,0,0,0,6.9-9.65,12.16,12.16,0,0,1,16.39-3.93c5.23,2.88,7.28,10,4.71,15.56-5.85,12.57-15.6,21.5-27.09,28.6a82.89,82.89,0,0,1-31.22,11.78A40.55,40.55,0,0,1,481.4,237a43.33,43.33,0,0,1-16.63-23.65,162.32,162.32,0,0,1-5-29.2c-.8-9.61-.17-19.36,0-29,.06-3.73.58-7.45.73-11.18a2.44,2.44,0,0,0-1.17-2c-10-2.52-12.38-15.63-5.72-22.37,2.48-2.51,5.86-4.11,8.6-6.4a6.51,6.51,0,0,0,1.62-3.66c1.29-7.09,2-14.32,3.77-21.29,1.7-6.76,10.15-10.16,17-7,5.65,2.59,9,9.36,5.58,16.55C489.21,99.88,489.3,102.52,488.82,105.3Z"/><path class="cls-1" d="M79.4,221.32c4.8-7.82,9.82-15.52,14.32-23.51a192.17,192.17,0,0,0,9.18-18.9c3.15-7.39,4.25-15.21,4.46-23.3.31-12.49,1-25,2.09-37.43.51-6,5.59-10.35,11.48-11a11.72,11.72,0,0,1,12.21,7.92c1.27,4,1.33,8.47,1.26,12.73-.16,8.76-.73,17.51-1.2,26.26s-1.76,17.8-1.35,26.64c.53,11.48,2.23,22.92,3.8,34.33.21,1.53,2.46,2.88,3.94,4.11,4,3.33,4.83,9.16,3.08,13.52s-6.88,7.29-11.4,7.43c-9.27.29-15.56-6.71-18.14-14.8-.78-2.44-1.45-4.92-2.13-7.21-4,5.57-7.73,11.54-12.18,17-6.44,7.83-14,14.31-25.16,12.66-8.28-1.22-13.54-6.75-16.65-14.25-5.74-13.86-6-28.52-5.7-43.17.18-9.87.74-19.73,1.25-29.59.55-10.63,1.34-21.25,1.84-31.88.26-5.47.15-11,.17-16.44,0-6.09,5-11.18,11.77-12,4.77-.56,11.45,3.89,12.28,8.81a65.8,65.8,0,0,1,.52,12.16q-.23,11.8-.86,23.59c-.54,9.71-1.55,19.4-1.87,29.11-.36,10.77-.36,21.55-.15,32.32.09,4.82,1.09,9.62,1.67,14.43Z"/><path class="cls-1" d="M178,152.9c8.69-2.44,17.44-5,26.25-7.35,7.31-1.94,14.66-3.79,22.05-5.35,5.07-1.07,11.35,3.17,12.78,7.54,2.74,8.38-2.28,14.41-7.29,15.88-9.41,2.76-19,4.86-28.45,7.5-8.58,2.4-17.11,5-25.51,7.94-.92.32-1.15,3.46-1.2,5.31-.24,9.72-.46,19.44-.42,29.16,0,6.79.57,13.57.67,20.36a12.5,12.5,0,0,1-8.06,12.44c-4.48,1.92-8.9.84-12.49-2.22-3.82-3.25-4.44-8-4.48-12.7-.09-12,0-23.93,0-35.89,0-2.78.47-5.58.22-8.33a4.31,4.31,0,0,0-2.45-3c-6.4-2-10-7.49-9-14.39.69-5.22,6.28-9.76,12.6-9.94v-28c-9.94,0-15.62-7.31-12.64-16.65,1.39-4.35,5.08-6.32,9-8a4.22,4.22,0,0,0,2.16-3.12c0-4.3,2.42-9.2,5.24-10.83,6.26-3.64,12.4-2.1,15.46,1.74,3.78,4.73,7.18.37,10.44-.46C194,91.66,205,87.72,216.22,85.16c10.59-2.41,21.46-3.62,32.2-5.34,7.08-1.13,14,4,14.6,10.89s-4.89,12.31-12.08,13.47c-14,2.27-28,4.76-41.8,8.1-10.28,2.49-20.22,6.44-30.29,9.78-.41.14-1,.64-1,1,0,6.48.07,13,.11,19.45C178,146,178,149.44,178,152.9Z"/><path class="cls-1" d="M5.85,383.7c.47-10.89.87-21.46,1.39-32,.59-12,1.36-24,1.89-36,.47-10.76.65-21.53,1.07-32.29.57-14.72,1.27-29.44,1.86-44.17.39-9.74.62-19.49,1-29.23s1.08-19.3,1.45-29c.33-8.65.44-17.31.6-26,.26-14.64.56-29.27.67-43.91,0-4.85-.47-9.69,2.81-13.87,5.08-6.47,15.62-6.82,20.68-.37,2.62,3.34,3.17,7.28,2.13,11.63a54.28,54.28,0,0,0-1.09,11.14c-.2,7.67-.1,15.36-.23,23-.11,6.73-.34,13.46-.56,20.19q-.54,16.34-1.15,32.68c-.37,9.67-.8,19.34-1.24,29s-1,19.32-1.35,29c-.34,8.84-.43,17.68-.76,26.52-.28,7.61-.77,15.21-1.1,22.82-.36,8.37-.59,16.75-1,25.12-.43,9-1.08,17.93-1.47,26.9-.42,9.66-.45,19.35-1,29-.37,6.1.58,12.48-3.93,17.89-3.74,4.48-12.54,4.47-16.48.14C5,396.41,6,389.86,5.85,383.7Z"/><path class="cls-1" d="M29.72,27.83,24.1,47l1.22.81c4.68-3.13,9.6-6,14-9.47A72.34,72.34,0,0,0,50,27.66c1.54-1.89,1.88-4.82,2.58-7.33a12.16,12.16,0,0,1,13.49-9.06c5.7.68,10.12,6.11,10.24,12.31.21,11.29-5.57,19.82-13.57,26.57A182.16,182.16,0,0,1,36.49,68.91c-8.67,5-18.47,6.42-27.57.25C3,65.16.17,59,0,52A69.9,69.9,0,0,1,11.73,11.6C16.59,4.14,23.25-.7,32.83.08c5.75.47,13.86,7,16.19,12.32,1.93,4.41,2.71,8.4.42,12.91-3.29,6.46-12.72,8.37-17.84,3.62A15.48,15.48,0,0,0,29.72,27.83Z"/><path class="cls-1" d="M450.94,157.94a116.39,116.39,0,0,0-16.31-33.8c-10.14-14.6-22.75-26.28-39.06-33.51-15.1-6.7-30.83-7-46.52-2.45C334.84,92.28,322,99,312,110.31c-4.54,5.11-5.14,15.32-.13,20,4,3.73,8.55,7.33,13.51,9.47,2.84,1.23,7.38.25,10.45-1.21a9.64,9.64,0,0,0,5.32-10.13c-.37-3-1.68-5.85-2.82-9.59l22.56-9.1c3.46,31.62.83,62.24,0,93.2-.88-.25-1.42-.36-1.92-.55-6-2.35-11.83-1-14.63,4.68-1.75,3.57-2.06,8.17-1.93,12.28.24,7.23,2.34,14.23,7.64,19.37,8.08,7.83,18,10,29.09,8.24,11.5-1.81,22.65-5,32.61-10.86a182.9,182.9,0,0,0,24.92-17.9,50.54,50.54,0,0,0,15.24-22.71C456.1,182.89,454.59,170.35,450.94,157.94Zm-22.05,27.48c-.68,7.5-6.13,12.63-11.51,17.37a83.91,83.91,0,0,1-31.63,17.62,1,1,0,0,1-.44.05l2-106.78c2.57,1.56,6.49,3.2,9.46,5.9,5.93,5.41,11.93,10.94,16.83,17.26,7,9,12.23,19.11,14.26,30.42A68.77,68.77,0,0,1,428.89,185.42Z"/></g></g></svg>