<?xml version="1.0" encoding="UTF-8"?>
<svg width="23px" height="16px" viewBox="0 0 23 16" version="1.1" xmlns="http://www.w3.org/2000/svg" xmlns:xlink="http://www.w3.org/1999/xlink">
    <title>Mail icon</title>
    <g id="Mobile" stroke="none" stroke-width="1" fill="none" fill-rule="evenodd">
        <g transform="translate(-17.000000, -2703.000000)" fill="#E1E0D6" id="Group-4">
            <g transform="translate(0.000000, 2505.000000)">
                <g id="Mail-icon" transform="translate(17.000000, 198.000000)">
                    <path d="M0,14.5976131 L0,1.96491228 C0.150062222,2.05755209 0.325373333,2.12482379 0.4462,2.24663178 C2.27383111,4.08854118 4.09461333,5.9372291 5.9156,7.78581432 C6.02048,7.89231928 6.11350222,8.01104613 6.22707111,8.14148133 C6.08682222,8.3004685 5.96783556,8.44271476 5.84118222,8.57777168 C4.61441333,9.88469134 3.38611111,11.1901731 2.15883111,12.496682 C1.73501778,12.9479672 1.69372,13.3853873 2.04229778,13.7030535 C2.37728,14.0081898 2.76746222,13.9442046 3.18381333,13.4924058 C4.30611111,12.2747367 5.42309333,11.0522405 6.53946222,9.829128 C6.73225333,9.61786405 6.91165333,9.39427552 7.14523111,9.12005348 C8.37118222,10.451725 9.58026667,11.6113659 11.4517511,11.6258472 C13.3499156,11.640534 14.5777067,10.4864393 15.8432178,9.05945759 C16.0040133,9.3013276 16.0956044,9.49307762 16.2344222,9.63974019 C17.46712,10.9411138 18.7061556,12.2365305 19.9479511,13.5291742 C20.3480489,13.9457452 20.72484,13.979227 21.0489867,13.647901 C21.3608667,13.3291051 21.33388,12.9128422 20.9636311,12.5160932 C20.3230044,11.8297164 19.6758356,11.1492966 19.0334711,10.4644604 C18.3009467,9.68338977 17.5707733,8.90026502 16.8204622,8.09762635 C18.8142044,6.06181013 20.7713511,4.06152979 22.7339156,2.06648741 C22.7946356,2.00486448 22.9100444,1.99757243 23,1.96491228 L23,14.5976131 C22.60072,15.6475651 21.8314978,16.0050808 20.7332222,16 C14.5770933,15.971599 8.42076,15.9732423 2.26452889,15.9985077 C1.17330667,16.0030267 0.391102222,15.6591708 0,14.5976131" id="Fill-1"></path>
                    <path d="M0.851851852,0.396632814 C1.25104134,-0.00880628697 1.74934135,0.00735841137 2.2375675,0.00715508184 C7.22250095,0.00491845691 12.2075362,0.00573177506 17.1923678,0.00573177506 C18.4810081,0.00573177506 19.7700554,-0.012771213 21.0579833,0.0167115702 C21.4775241,0.0262680585 21.8943174,0.161380537 22.4320988,0.261317005 C22.2469025,0.479184606 22.180761,0.567429626 22.1042404,0.645406504 C19.3397285,3.46497722 16.5770482,6.28617457 13.8077538,9.10106871 C12.4848217,10.4457886 10.6792601,10.4381638 9.35449641,9.08907226 C6.6116586,6.29583272 3.87248402,3.49903492 1.13229188,0.703050429 C1.03908322,0.607892204 0.952183444,0.506634094 0.851851852,0.396632814" id="Fill-3"></path>
                </g>
            </g>
        </g>
    </g>
</svg>