<?xml version="1.0" encoding="UTF-8"?>
<svg width="34px" height="24px" viewBox="0 0 34 24" version="1.1" xmlns="http://www.w3.org/2000/svg" xmlns:xlink="http://www.w3.org/1999/xlink">
    <title>Mail icon</title>
    <g id="Mobile" stroke="none" stroke-width="1" fill="none" fill-rule="evenodd">
        <g transform="translate(-214.000000, -2122.000000)" fill="#0B6623" id="Mail-icon">
            <g transform="translate(214.000000, 2122.000000)">
                <path d="M0,21.8964196 L0,2.94736842 C0.221831111,3.08632813 0.480986667,3.18723568 0.6596,3.36994767 C3.36131556,6.13281177 6.05290667,8.90584365 8.7448,11.6787215 C8.89984,11.8384789 9.03735111,12.0165692 9.20523556,12.212222 C8.99791111,12.4507027 8.82201778,12.6640721 8.63479111,12.8666575 C6.82130667,14.827037 5.00555556,16.7852597 3.19131556,18.7450229 C2.56480889,19.4219508 2.50376,20.078081 3.01904889,20.5545803 C3.51424,21.0122846 4.09103111,20.9163069 4.70650667,20.2386087 C6.36555556,18.4121051 8.01674667,16.5783607 9.66703111,14.743692 C9.95202667,14.4267961 10.2172267,14.0914133 10.5625156,13.6800802 C12.3747911,15.6775875 14.1621333,17.4170488 16.9286756,17.4387709 C19.7346578,17.4608011 21.5496533,15.7296589 23.4204089,13.5891864 C23.6581067,13.9519914 23.7935022,14.2396164 23.9987111,14.4596103 C25.82096,16.4116707 27.6525778,18.3547957 29.4882756,20.2937613 C30.0797244,20.9186178 30.63672,20.9688405 31.1158933,20.4718515 C31.5769333,19.9936576 31.53704,19.3692632 30.9897156,18.7741398 C30.0427022,17.7445747 29.0860178,16.7239449 28.1364356,15.6966906 C27.0535733,14.5250847 25.9741867,13.3503975 24.8650311,12.1464395 C27.8123022,9.09271519 30.7054756,6.09229469 33.6066578,3.09973112 C33.6964178,3.00729672 33.8670222,2.99635865 34,2.94736842 L34,21.8964196 C33.40976,23.4713477 32.2726489,24.0076212 30.6491111,24 C21.5487467,23.9573985 12.44808,23.9598635 3.34756444,23.9977616 C1.73445333,24.0045401 0.578151111,23.4887562 0,21.8964196" id="Fill-1"></path>
                <path d="M1.25925926,0.59494922 C1.84936546,-0.0132094304 2.58598287,0.0110376171 3.30770847,0.0107326228 C10.6767405,0.00737768536 18.045923,0.00859766259 25.4148046,0.00859766259 C27.3197511,0.00859766259 29.2252992,-0.0191568195 31.1291927,0.0250673552 C31.7493834,0.0394020877 32.3655126,0.242070806 33.1604938,0.391975508 C32.8867255,0.718776909 32.788951,0.851144439 32.6758336,0.968109756 C28.5891639,5.19746583 24.5052017,9.42926186 20.4114622,13.6516031 C18.4558234,15.6686829 15.7867323,15.6572456 13.828386,13.6336084 C9.7737562,9.44374909 5.7245416,5.24855238 1.67382278,1.05457564 C1.53603607,0.911838307 1.40757553,0.759951141 1.25925926,0.59494922" id="Fill-3"></path>
            </g>
        </g>
    </g>
</svg>