<?xml version="1.0" encoding="UTF-8"?>
<svg width="64px" height="25px" viewBox="0 0 64 25" version="1.1" xmlns="http://www.w3.org/2000/svg" xmlns:xlink="http://www.w3.org/1999/xlink">
    <title>Menu</title>
    <g id="Mobile" stroke="none" stroke-width="1" fill="none" fill-rule="evenodd">
        <g id="Menu-Slider" transform="translate(-128.000000, -9.000000)" fill="#353535" fill-rule="nonzero">
            <g id="Menu" transform="translate(128.000000, 9.000000)">
                <path d="M31.8348531,18.9727329 C30.261335,20.4149593 28.8392207,21.8054832 27.3387009,23.0926022 C26.6006744,23.6972373 25.7981761,24.2174542 24.94598,24.6436758 C22.9425833,25.6967732 20.3497931,24.3089705 20.0794292,21.8816763 C19.8955817,20.096581 20.065911,18.2543409 20.2362403,16.4529185 C20.4876787,13.7943239 20.8878174,11.146614 21.2041432,8.49346173 C21.2141732,8.12969307 21.1951868,7.76570084 21.1473667,7.40498901 C21.0974244,7.19203463 21.0974244,6.97030211 21.1473667,6.75734773 C21.8422021,5.42941101 21.8692384,3.9790211 21.9584585,2.53679474 C22.0368641,1.76670028 22.3640044,1.36668655 23.1183198,1.24695455 C24.6900355,0.989349343 25.3839696,1.66420243 25.2001221,3.27151383 C25.0243856,4.83891455 25.0189783,4.82530864 26.5005727,4.34365946 C27.7307286,3.94364573 28.9608845,3.52730492 30.2153732,3.21436901 C30.9739731,3.04466448 31.7500363,2.96701139 32.5269848,2.98306855 C32.7027214,2.98306855 33.0298617,3.42390001 33.0325654,3.66608519 C33.0325654,4.88517464 32.0673661,5.29879428 31.1751651,5.67431737 C29.2826176,6.45529655 27.3495154,7.16280382 25.4218206,7.8703111 C24.7999835,8.09889037 24.489065,8.41454746 24.459325,9.14382419 C24.3889398,10.1946849 24.2634967,11.2410742 24.0835191,12.2786256 C23.994299,12.8990551 24.1997756,13.0432777 24.7405034,12.7956502 C26.1707287,12.1588936 27.5955466,11.5194159 29.0284755,10.8908229 C29.3883341,10.6861449 29.779318,10.5427121 30.1856331,10.4663185 C30.5857717,10.4391067 31.2346452,10.5044151 31.3590126,10.7384367 C31.5644892,11.1357293 31.6293765,11.8622848 31.4049745,12.1724995 C30.9037062,12.8604411 30.2574094,13.4282261 29.5124269,13.8351416 C27.7902086,14.7031986 25.9787703,15.3889365 24.226812,16.1998486 C23.926708,16.3386289 23.5563094,16.7168732 23.5319767,17.0162032 C23.41878,18.2118567 23.3952819,19.4143969 23.461682,20.6136055 C23.5373839,21.7020783 23.8726352,21.8680704 24.7459107,21.1932173 C26.5411273,19.7999722 28.2606419,18.3114857 29.9963784,16.8393264 C30.6749918,16.2597146 31.3157544,15.7209206 32.2539172,16.29509 C32.2809536,16.3114171 32.4891339,16.145425 32.5242812,16.0392989 C33.0866382,13.6990825 33.7301043,11.3697509 34.1626866,9.00504391 C34.5682325,6.79000192 34.7439691,4.53142101 35.0251476,2.29188837 C35.030263,2.16934398 35.0596787,2.04906706 35.111664,1.93813474 C35.6253555,1.08640483 36.4634837,1.21157919 37.2745755,1.20885801 C37.8964126,1.20885801 38.3560313,1.45376437 38.5588042,2.0932421 C39.9782149,6.58863446 42.0005371,10.8010239 44.3148524,14.8827966 C44.4184333,15.0335367 44.5351512,15.174689 44.6636219,15.3045798 C44.7430925,15.1290831 44.8073184,14.9469911 44.8555803,14.7603435 C45.1583879,13.0704895 45.547712,11.3887992 45.7234485,9.68533937 C45.9316288,7.68527073 46.0154416,5.66887501 46.0262561,3.65792164 C46.0262561,2.89871192 45.6396357,2.14494455 45.4855283,1.37757128 C45.3314208,0.61019801 45.5909702,0.193857192 46.3696183,0.0659616463 C46.9406972,-0.050653907 47.5323266,-0.0121457144 48.0837257,0.177530101 C48.4924683,0.417874237 48.7701357,0.832570177 48.8380411,1.30409937 C49.2278939,6.43617348 48.9131124,11.5978407 47.9025819,16.6434013 C47.6646616,17.8434425 47.488925,19.0570895 47.2591157,20.2598519 C47.1348534,21.1047083 46.4852575,21.7735371 45.6488855,21.9177571 C44.8125136,22.061977 43.9787617,21.6489295 43.5821662,20.8938873 C42.2141246,18.4448236 40.8785268,15.99576 39.5645581,13.5330905 C39.0238302,12.5180896 38.5371751,11.4704346 38.0153727,10.4418279 C37.9141848,10.2825823 37.7973403,10.1339836 37.6666032,9.99827528 C37.5553871,10.1730938 37.4646613,10.3602884 37.3962393,10.5561175 C36.9095842,12.6378216 36.4283364,14.7222469 35.9687177,16.8148357 C35.6523919,18.2516197 35.3874352,19.7020096 35.0792204,21.1415148 C34.9034838,21.9578694 34.1275393,22.5238752 33.1866728,22.551087 C32.4055844,22.5938983 31.6947846,22.0990438 31.4590473,21.3483246 C31.4053788,21.0419499 31.4164333,20.7276325 31.4914909,20.425844 C31.5590819,19.9686855 31.6942639,19.5251328 31.8348531,18.9727329 Z" id="Path"></path>
                <path d="M14.5839932,10.12211 C13.8661655,13.0210956 13.1963709,15.7370162 12.5212393,18.4529367 C12.1182951,20.0759315 11.7447045,21.7125879 11.2910588,23.3219211 C10.8961201,24.6880783 10.0955688,25.2700613 8.75864805,24.8820726 C7.99011878,24.6607551 7.6378762,23.9749442 7.56582658,23.2754717 C7.31765567,20.8983581 7.14420288,18.5130476 6.98942962,16.1277371 C6.92271701,15.0785284 6.98942962,14.023855 6.98942962,12.971914 L6.72257918,12.9555201 C6.45572874,14.0484458 6.1888783,15.1659624 5.8900058,16.2643529 C5.55644275,17.4255865 5.19085764,18.5758909 4.85996309,19.7371245 C4.57977013,20.7289547 4.29157165,21.7180525 4.05941177,22.7208119 C3.82725188,23.7235713 3.12276671,24.4367054 2.17544764,24.4776901 C1.72135218,24.5129951 1.2722924,24.3611404 0.928050389,24.0558685 C0.583808382,23.7505966 0.372898395,23.3171937 0.342185104,22.851963 C0.0920649757,21.1713666 -0.0212913975,19.4724018 0.00328504229,17.7725904 C0.144715777,14.2806926 0.462267803,10.7942593 0.657068626,7.31602306 C0.679358007,6.42440481 0.6392277,5.53229711 0.536985927,4.64655185 C0.467604812,3.82685751 0.771814316,3.37329332 1.55902312,3.23667759 C1.91393421,3.17656668 2.27685081,3.1437789 2.62642489,3.10825882 C3.39762267,3.03175401 3.99269915,3.6164693 3.9606771,4.57277936 C3.87528496,7.04279161 3.73919123,9.50187461 3.600429,11.9609576 C3.56069671,12.2640252 3.57243304,12.5718447 3.63511956,12.8708183 C3.70983769,12.4882943 3.76053927,12.0975733 3.86194244,11.7205139 C4.69184731,8.63573093 5.51641518,5.54275098 6.40769566,2.46616492 C6.50909883,2.11096404 6.92004851,1.77488937 7.26962259,1.58635967 C7.66569434,1.41512474 8.08685312,1.3126269 8.51581415,1.28307277 C9.07620008,1.20110334 9.66593956,1.71477845 9.77267974,2.47436187 C9.97455698,3.71513337 10.1064219,4.96678743 10.1676184,6.22309728 C10.2316625,8.54283224 10.1889664,10.8680318 10.1996404,13.1850345 C10.1975367,13.5050221 10.2805611,13.819558 10.4398058,14.0948952 C10.6052531,13.6058109 10.8027224,13.1249236 10.9334792,12.6276423 C11.7215775,9.6330257 12.5007808,6.63476599 13.271089,3.63286319 C13.3938402,3.15744048 13.5379395,2.68748239 13.6179946,2.20386274 C13.639277,1.74620741 13.9754331,1.36874091 14.4185459,1.30493128 C14.6874242,1.2615271 14.9531085,1.19945144 15.2137603,1.1191339 C16.238466,0.777594597 16.9936527,1.17104788 17.169774,2.2912968 C17.4366244,4.0700335 17.6821268,5.85696714 17.8369001,7.64936542 C18.2104907,11.9746192 18.5227057,16.3080699 18.8669428,20.636056 C18.9309869,21.4557503 19.2458704,22.2754446 18.6000924,23.043225 C18.1624576,23.5678294 17.7701875,24.0978984 16.9989897,23.8984394 C16.1924135,23.6691811 15.595827,22.971371 15.4806107,22.122435 C15.333843,20.0294822 15.1950807,17.9392616 15.0563185,15.8381118 C14.9495783,14.2123847 14.8508437,12.5866576 14.7387665,10.9609305 C14.7147499,10.7396131 14.6533743,10.5155633 14.5839932,10.12211 Z" id="Path"></path>
                <path d="M48.0036586,14.3674446 C48.1071616,11.450646 48.7109294,8.84587705 49.4182002,6.25196129 C49.8782137,4.59142108 50.3152265,2.92002767 50.1110955,1.16452192 C50.0817677,0.925554002 50.1588112,0.685813654 50.3238518,0.502476481 C51.0684987,-0.105302943 52.0086513,-0.0401837187 52.8395507,0.163313856 C53.5928229,0.358671528 53.9895845,1.01257707 53.8429552,1.79129445 C53.4979451,3.69060515 53.1500598,5.58991585 52.7532982,7.48922655 C52.1322799,10.4494379 51.3675075,13.3960828 52.0949038,16.4431198 C52.1931338,16.7039988 52.3244235,16.9527137 52.4859153,17.183851 C52.7375247,17.0360414 52.9708894,16.8622211 53.1816858,16.6656105 C55.570881,13.9170366 57.2154293,10.7316212 58.5034672,7.40511422 C59.3084908,5.35385866 60.1623909,3.2754701 60.2601438,1.03157018 C60.2639487,0.884934928 60.3032889,0.741069847 60.3751472,0.611008521 C60.7172822,0.0412153112 62.2525774,-0.189415274 63.2099805,0.176880361 C63.7533715,0.383091237 64.0926314,1.13196231 63.9776281,1.80486096 C63.5952418,4.02976778 63.1151027,6.24653469 62.8764707,8.48500802 C62.4624585,12.5196866 62.4164572,16.5625051 63.4083613,20.5537709 C63.6067422,21.348768 62.5860872,22.8302304 61.7695632,22.971322 C60.5792782,23.1775329 59.4119939,22.2468707 59.3056158,20.9770458 C59.1388608,18.9746297 58.9951066,16.9695002 58.8312268,14.9670841 C58.8029603,14.8096749 58.7586705,14.6552058 58.6989729,14.5058229 C58.5679299,14.6117191 58.4476157,14.7288965 58.3395874,14.8558388 C57.3016819,16.318308 56.3270282,17.8269034 55.2172456,19.2323933 C54.6409369,19.918468 53.9447499,20.5066588 53.1586851,20.9716192 C51.9511496,21.717777 50.0420935,20.9444862 49.1910685,19.4684505 C48.364051,17.8837324 47.9566035,16.1333747 48.0036586,14.3674446 Z" id="Path"></path>
            </g>
        </g>
    </g>
</svg>