<?xml version="1.0" encoding="UTF-8"?>
<svg width="23px" height="24px" viewBox="0 0 23 24" version="1.1" xmlns="http://www.w3.org/2000/svg" xmlns:xlink="http://www.w3.org/1999/xlink">
    <title>Phone icon</title>
    <g id="Mobile" stroke="none" stroke-width="1" fill="none" fill-rule="evenodd">
        <g transform="translate(-275.000000, -2122.000000)" fill="#0B6623" id="Phone-icon">
            <g transform="translate(275.000000, 2122.000000)">
                <path d="M18.1614299,24 C14.3688546,23.7486046 11.2206983,22.5426239 8.42977868,20.4666531 C3.65537189,16.9148466 0.940266241,12.1473647 0.130422691,6.30072866 C0.0517958032,5.73286459 0.0326413825,5.15583714 0.00531619494,4.58212975 C-0.0504057562,3.41134171 0.330271612,2.4082834 1.22476966,1.62315421 C1.65822215,1.24280746 2.08993332,0.854359751 2.55995334,0.522087555 C4.05466789,-0.534357416 6.1491971,0.0706913945 6.71083686,1.81213236 C7.16987322,3.23577662 7.45410875,4.71958048 7.73030746,6.19249451 C7.79219097,6.52277467 7.57412526,6.97669408 7.3490943,7.27164874 C6.97591797,7.76049524 6.52290922,8.20299362 6.04726343,8.59834707 C5.48227499,9.06793719 5.44985982,9.54642509 5.75659845,10.1753784 C6.77017538,12.2544036 8.11259219,14.0861504 9.874531,15.5947884 C10.7162539,16.3155083 11.6277633,16.9565466 12.51034,17.6299888 C12.9871913,17.993868 13.415152,17.955488 13.8871812,17.5578769 C16.2130369,15.598374 15.9100488,15.8621201 18.6606504,16.7194939 C19.3175265,16.9242755 19.9383708,17.2399474 20.587344,17.473016 C21.7466553,17.8890867 22.2214974,18.8278685 22.3648207,19.9167173 C22.4279097,20.3957365 22.3101703,21.058156 22.0035656,21.3933499 C21.249578,22.217523 20.3811996,22.9588273 19.4711637,23.6138099 C19.0574014,23.9114206 18.4361552,23.9256305 18.1614299,24" id="Fill-1"></path>
            </g>
        </g>
    </g>
</svg>