<?xml version="1.0" encoding="UTF-8"?>
<svg width="11px" height="17px" viewBox="0 0 11 17" version="1.1" xmlns="http://www.w3.org/2000/svg" xmlns:xlink="http://www.w3.org/1999/xlink">
    <title>Pin Map</title>
    <g id="Mobile" stroke="none" stroke-width="1" fill="none" fill-rule="evenodd">
        <g transform="translate(-153.000000, -2300.000000)" fill="#0B6623" id="Map">
            <g transform="translate(0.000000, 2231.000000)">
                <g id="Pin-Map" transform="translate(153.000000, 69.000000)">
                    <path d="M5.51026651,7.92223242 C6.92129206,7.91326758 8.05704151,6.80388477 8.04892934,5.44258984 C8.04066134,4.07415625 6.89990873,2.97898438 5.49011684,2.9859897 C4.08255237,2.9930625 2.94440414,4.11074609 2.9601675,5.47038086 C2.97596511,6.8329043 4.11812272,7.93106445 5.51026651,7.92223242 M5.16175938,0 L5.84712247,0 C5.87998563,0.00793554687 5.91247184,0.0206191406 5.94574622,0.023109375 C7.02738626,0.103660156 8.00951158,0.452658203 8.85442721,1.10911719 C10.5338409,2.4139668 11.2333568,4.11562695 10.931797,6.18112695 C10.7678582,7.30389063 10.3624316,8.36386719 9.90776176,9.40266016 C8.76858548,12.0053867 7.31571852,14.4440898 5.74435228,16.8196406 C5.69952953,16.8874082 5.63065054,16.9402012 5.57297723,17 L5.43590461,17 C5.37936216,16.9320996 5.31898167,16.8668555 5.26685981,16.7959004 C3.84843234,14.864209 2.57348564,12.8488789 1.53570883,10.6996074 C0.923336905,9.43134766 0.408937632,8.12712891 0.140994928,6.74282422 C-0.114988189,5.42027734 -0.0562525711,4.1320293 0.600119668,2.91516797 C1.34414985,1.53584375 2.4890489,0.620599609 4.03858633,0.201277344 C4.40381633,0.102431641 4.78690003,0.0654433594 5.16175938,0" id="Fill-1"></path>
                </g>
            </g>
        </g>
    </g>
</svg>